<svg xmlns="http://www.w3.org/2000/svg" xmlns:svg="http://www.w3.org/2000/svg" id="svg2" width="135" height="135" version="1.0"><defs id="defs4"><clipPath id="clipPath2474" clipPathUnits="userSpaceOnUse"><path id="path2476" d="m 0,450.7086 121.89,0 0,153.071 -121.89,0 0,-153.071 z"/></clipPath><clipPath id="clipPath2484" clipPathUnits="userSpaceOnUse"><path id="path2486" d="m 1701.323,36.99957 283.465,0 0,595.276 -283.465,0 0,-595.276 z"/></clipPath><clipPath id="clipPath2494" clipPathUnits="userSpaceOnUse"><path id="path2496" d="m 0,1802.8342 487.5601,0 0,578.1658 L 0,2381 0,1802.8342 z"/></clipPath><clipPath id="clipPath2504" clipPathUnits="userSpaceOnUse"><path id="path2506" d="m -1.5e-6,-2.94433 2.3255315,0 0,3.88873 -2.3255315,0 0,-3.88873 z"/></clipPath><clipPath id="clipPath2514" clipPathUnits="userSpaceOnUse"><path id="path2516" d="m 0,1802.8342 487.5601,0 0,578.1658 L 0,2381 0,1802.8342 z"/></clipPath><clipPath id="clipPath2532" clipPathUnits="userSpaceOnUse"><path id="path2534" d="m 9.806,537.3086 104.874,0 0,28.203 -104.874,0 0,-28.203 z"/></clipPath><clipPath id="clipPath2542" clipPathUnits="userSpaceOnUse"><path id="path2544" d="m 1701.323,36.99957 283.465,0 0,595.276 -283.465,0 0,-595.276 z"/></clipPath><clipPath id="clipPath2552" clipPathUnits="userSpaceOnUse"><path id="path2554" d="m 39.2241,2149.2344 419.4961,0 0,112.812 -419.4961,0 0,-112.812 z"/></clipPath><clipPath id="clipPath2562" clipPathUnits="userSpaceOnUse"><path id="path2564" d="m -0.0935124,-19.05134 2.7028824,0 0,21.10663 -2.7028824,0 0,-21.10663 z"/></clipPath><clipPath id="clipPath2572" clipPathUnits="userSpaceOnUse"><path id="path2574" d="m 39.2241,2149.2344 419.4961,0 0,112.812 -419.4961,0 0,-112.812 z"/></clipPath><clipPath id="clipPath2612" clipPathUnits="userSpaceOnUse"><path id="path2614" d="m 0,-9.1245 291.968,0 0,462.668 -291.968,0 0,-462.668 z"/></clipPath><clipPath id="clipPath2618" clipPathUnits="userSpaceOnUse"><path id="path2620" d="m 0,0 283.5,0 0,453.5436 -283.5,0 L 0,0 z"/></clipPath><clipPath id="clipPath2628" clipPathUnits="userSpaceOnUse"><path id="path2630" d="m 1701.323,36.99957 283.465,0 0,595.276 -283.465,0 0,-595.276 z"/></clipPath><clipPath id="clipPath2638" clipPathUnits="userSpaceOnUse"><path id="path2640" d="m 0,0 1134,0 0,1814.1743 -1134,0 L 0,0 z"/></clipPath><clipPath id="clipPath2644" clipPathUnits="userSpaceOnUse"><path id="path2646" d="m 0,0 1134,0 0,1814.1743 -1134,0 L 0,0 z"/></clipPath><clipPath id="clipPath2654" clipPathUnits="userSpaceOnUse"><path id="path2656" d="m 8.716e-4,0.0203769 0.9688584,0 0,1.2848631 -0.9688584,0 0,-1.2848631 z"/></clipPath><clipPath id="clipPath2664" clipPathUnits="userSpaceOnUse"><path id="path2666" d="m 0,0 1134,0 0,1814.1743 -1134,0 L 0,0 z"/></clipPath></defs><metadata id="metadata7"/><g id="layer1" transform="translate(-74.24472,-374.35257)"><rect style="fill:#000;fill-opacity:1" id="rect3079" width="117" height="117" x="83.245" y="383.353" ry="10.174"/><rect style="fill:#2980b9;fill-opacity:1" id="rect3849" width="108" height="108" x="87.745" y="387.853" ry="8.951"/><path style="color:#000;font-style:normal;font-variant:normal;font-weight:400;font-stretch:normal;font-size:medium;line-height:normal;font-family:sans-serif;text-indent:0;text-align:start;text-decoration:none;text-decoration-line:none;text-decoration-style:solid;text-decoration-color:#000;letter-spacing:normal;word-spacing:normal;text-transform:none;direction:ltr;block-progression:tb;writing-mode:lr-tb;baseline-shift:baseline;text-anchor:start;white-space:normal;clip-rule:nonzero;display:inline;overflow:visible;visibility:visible;opacity:1;isolation:auto;mix-blend-mode:normal;color-interpolation:sRGB;color-interpolation-filters:linearRGB;solid-color:#000;solid-opacity:1;fill:#fff;fill-opacity:1;fill-rule:nonzero;stroke:none;stroke-width:.2;stroke-linecap:butt;stroke-linejoin:round;stroke-miterlimit:4;stroke-dasharray:none;stroke-dashoffset:0;stroke-opacity:1;color-rendering:auto;image-rendering:auto;shape-rendering:auto;text-rendering:auto;enable-background:accumulate" id="path7097" d="m 125.7562,397.97838 c -3.75201,0.11817 -6.86751,2.28335 -8.4611,5.18277 -1.69326,3.08079 -1.66177,7.17185 0.91489,10.28464 2.40976,3.52887 6.26746,6.23305 10.55846,7.50265 3.25328,0.96256 6.81723,1.07759 10.08238,-0.084 0.008,20.33728 0.0903,42.71605 0.0903,62.80942 a 1.9917783,1.9917783 0 0 0 1.49058,1.92934 c 1.49213,0.38695 3.30675,-0.1216 4.15429,-1.23852 0.84756,-1.11691 0.96988,-2.2747 1.06114,-3.37323 0.0913,-1.09854 0.0695,-2.19071 0.0903,-3.10873 0.0208,-0.91804 0.14692,-1.68486 0.1867,-1.7862 a 1.9917783,1.9917783 0 0 0 0.0965,-0.32675 c 0.83315,-4.02208 3.29815,-7.15269 6.48508,-10.19439 3.18693,-3.0417 7.04187,-5.88943 10.21929,-9.37287 5.52161,-6.03468 6.25776,-15.26308 1.39722,-21.97272 -0.44728,-0.61745 -1.80181,-2.84019 -2.86289,-4.60864 -0.53056,-0.88422 -1.00448,-1.67375 -1.32877,-2.19383 -0.16213,-0.26005 -0.20489,-0.36511 -0.44809,-0.66906 -0.0608,-0.0759 0.0783,-0.12709 -0.59125,-0.51344 -0.0837,-0.0482 -0.34167,-0.15539 -0.34231,-0.1556 -6.3e-4,-2.3e-4 -0.63431,-0.11203 -0.63481,-0.11203 -5.3e-4,-1e-5 -0.96118,0.23628 -0.96156,0.2365 -3.9e-4,2.1e-4 -0.74035,0.68729 -0.74063,0.68771 -2.7e-4,4.4e-4 -0.26124,0.61551 -0.26138,0.61614 -1.5e-4,6.6e-4 -0.0465,0.28875 -0.0498,0.38899 -0.006,0.20047 0.0106,0.31427 0.0249,0.40142 0.1156,0.69728 0.15691,0.52664 0.21159,0.64728 a 1.9917783,1.9917783 0 0 0 0.028,0.0591 c 2.68494,5.44925 5.64548,11.00067 4.30366,16.11001 -1.73468,6.19078 -8.18578,10.41317 -15.03018,11.55426 -0.0293,-0.3107 -0.0293,-0.39049 -0.0934,-1.33808 l 0,-45.23063 a 1.9917783,1.9917783 0 0 0 -0.14937,-0.75929 c -2.93098,-7.10825 -10.95166,-11.5581 -18.68039,-11.36756 -0.25553,-0.0107 -0.50915,-0.0125 -0.75929,-0.005 z m 1.63683,5.93272 c 2.67259,-0.12031 5.84877,0.89692 8.0939,2.61083 2.19347,1.6745 3.39486,3.79871 3.17097,6.22369 -0.6258,1.93583 -2.13019,2.77326 -4.41881,2.98427 -2.3584,0.21743 -5.24815,-0.54727 -6.94252,-1.67729 a 1.9917783,1.9917783 0 0 0 -0.27696,-0.1556 c -1.77529,-0.81224 -3.58592,-2.92202 -4.16054,-4.85758 -0.2873,-0.96777 -0.28982,-1.83791 -0.0467,-2.53615 0.24275,-0.69706 0.69841,-1.31175 1.77064,-1.87644 0.002,-8e-4 7.9e-4,-0.002 0.003,-0.003 0.79854,-0.41468 1.77991,-0.65145 2.80688,-0.71261 z m -2.30899,13.4556 c 0.052,0.0347 0.12463,0.0437 0.17739,0.0779 0.0378,0.0179 0.0616,0.0573 0.0996,0.0746 l -0.27696,-0.15248 z"/></g></svg>